<svg width="22" height="32" viewBox="0 0 22 32" fill="none" xmlns="http://www.w3.org/2000/svg">
<g filter="url(#filter0_d_145_19)">
<path d="M4.93934 13.0607C4.35355 12.4749 4.35355 11.5251 4.93934 10.9393L14.4853 1.3934C15.0711 0.807611 16.0208 0.807611 16.6066 1.3934C17.1924 1.97919 17.1924 2.92893 16.6066 3.51472L8.12132 12L16.6066 20.4853C17.1924 21.0711 17.1924 22.0208 16.6066 22.6066C16.0208 23.1924 15.0711 23.1924 14.4853 22.6066L4.93934 13.0607ZM7 13.5H6.75V10.5H7V13.5ZM6.25 13.5H6V10.5H6.25V13.5ZM4.93934 13.0607C4.35355 12.4749 4.35355 11.5251 4.93934 10.9393L14.4853 1.3934C15.0711 0.807611 16.0208 0.807611 16.6066 1.3934C17.1924 1.97919 17.1924 2.92893 16.6066 3.51472L8.12132 12L16.6066 20.4853C17.1924 21.0711 17.1924 22.0208 16.6066 22.6066C16.0208 23.1924 15.0711 23.1924 14.4853 22.6066L4.93934 13.0607ZM7 13.5H6.75V10.5H7V13.5ZM6.25 13.5H6V10.5H6.25V13.5Z" fill="black"/>
</g>
<defs>
<filter id="filter0_d_145_19" x="0.5" y="0.954041" width="20.5459" height="30.0919" filterUnits="userSpaceOnUse" color-interpolation-filters="sRGB">
<feFlood flood-opacity="0" result="BackgroundImageFix"/>
<feColorMatrix in="SourceAlpha" type="matrix" values="0 0 0 0 0 0 0 0 0 0 0 0 0 0 0 0 0 0 127 0" result="hardAlpha"/>
<feOffset dy="4"/>
<feGaussianBlur stdDeviation="2"/>
<feComposite in2="hardAlpha" operator="out"/>
<feColorMatrix type="matrix" values="0 0 0 0 0 0 0 0 0 0 0 0 0 0 0 0 0 0 0.25 0"/>
<feBlend mode="normal" in2="BackgroundImageFix" result="effect1_dropShadow_145_19"/>
<feBlend mode="normal" in="SourceGraphic" in2="effect1_dropShadow_145_19" result="shape"/>
</filter>
</defs>
</svg>
