<svg width="22" height="32" viewBox="0 0 22 32" fill="none" xmlns="http://www.w3.org/2000/svg">
<g filter="url(#filter0_d_145_17)">
<path d="M17.0607 13.0607C17.6464 12.4749 17.6464 11.5251 17.0607 10.9393L7.51472 1.3934C6.92893 0.807611 5.97919 0.807611 5.3934 1.3934C4.80761 1.97919 4.80761 2.92893 5.3934 3.51472L13.8787 12L5.3934 20.4853C4.80761 21.0711 4.80761 22.0208 5.3934 22.6066C5.97919 23.1924 6.92893 23.1924 7.51472 22.6066L17.0607 13.0607ZM15 13.5H15.25V10.5H15V13.5ZM15.75 13.5H16V10.5H15.75V13.5ZM17.0607 13.0607C17.6464 12.4749 17.6464 11.5251 17.0607 10.9393L7.51472 1.3934C6.92893 0.807611 5.97919 0.807611 5.3934 1.3934C4.80761 1.97919 4.80761 2.92893 5.3934 3.51472L13.8787 12L5.3934 20.4853C4.80761 21.0711 4.80761 22.0208 5.3934 22.6066C5.97919 23.1924 6.92893 23.1924 7.51472 22.6066L17.0607 13.0607ZM15 13.5H15.25V10.5H15V13.5ZM15.75 13.5H16V10.5H15.75V13.5Z" fill="black"/>
</g>
<defs>
<filter id="filter0_d_145_17" x="0.954102" y="0.954041" width="20.5459" height="30.0919" filterUnits="userSpaceOnUse" color-interpolation-filters="sRGB">
<feFlood flood-opacity="0" result="BackgroundImageFix"/>
<feColorMatrix in="SourceAlpha" type="matrix" values="0 0 0 0 0 0 0 0 0 0 0 0 0 0 0 0 0 0 127 0" result="hardAlpha"/>
<feOffset dy="4"/>
<feGaussianBlur stdDeviation="2"/>
<feComposite in2="hardAlpha" operator="out"/>
<feColorMatrix type="matrix" values="0 0 0 0 0 0 0 0 0 0 0 0 0 0 0 0 0 0 0.25 0"/>
<feBlend mode="normal" in2="BackgroundImageFix" result="effect1_dropShadow_145_17"/>
<feBlend mode="normal" in="SourceGraphic" in2="effect1_dropShadow_145_17" result="shape"/>
</filter>
</defs>
</svg>
